<mxfile host="app.diagrams.net" modified="2022-06-13T16:33:00.566Z" agent="5.0 (Windows NT 10.0; Win64; x64) AppleWebKit/537.36 (KHTML, like Gecko) Chrome/91.0.4472.124 Safari/537.36" etag="U3igpktQSSuJBiYM0ZM6" version="18.1.1" type="github">
  <diagram id="C5RBs43oDa-KdzZeNtuy" name="Page-1">
    <mxGraphModel dx="742" dy="430" grid="1" gridSize="10" guides="1" tooltips="1" connect="1" arrows="1" fold="1" page="1" pageScale="1" pageWidth="827" pageHeight="1169" math="0" shadow="0">
      <root>
        <mxCell id="WIyWlLk6GJQsqaUBKTNV-0" />
        <mxCell id="WIyWlLk6GJQsqaUBKTNV-1" parent="WIyWlLk6GJQsqaUBKTNV-0" />
        <mxCell id="Mh0ESkbl0JZ6DSoJVtcz-12" value="TestGroup" style="swimlane;" parent="WIyWlLk6GJQsqaUBKTNV-1" vertex="1">
          <mxGeometry x="20" y="150" width="160" height="200" as="geometry" />
        </mxCell>
        <mxCell id="Mh0ESkbl0JZ6DSoJVtcz-15" value="name: String" style="text;strokeColor=#d6b656;fillColor=#fff2cc;align=left;verticalAlign=middle;spacingLeft=4;spacingRight=4;overflow=hidden;points=[[0,0.5],[1,0.5]];portConstraint=eastwest;rotatable=0;" parent="Mh0ESkbl0JZ6DSoJVtcz-12" vertex="1">
          <mxGeometry x="10" y="40" width="140" height="20" as="geometry" />
        </mxCell>
        <mxCell id="Mh0ESkbl0JZ6DSoJVtcz-16" value="tests: List" style="text;strokeColor=#d6b656;fillColor=#fff2cc;align=left;verticalAlign=middle;spacingLeft=4;spacingRight=4;overflow=hidden;points=[[0,0.5],[1,0.5]];portConstraint=eastwest;rotatable=0;" parent="Mh0ESkbl0JZ6DSoJVtcz-12" vertex="1">
          <mxGeometry x="10" y="60" width="140" height="20" as="geometry" />
        </mxCell>
        <mxCell id="Mh0ESkbl0JZ6DSoJVtcz-22" value="run" style="text;strokeColor=#6c8ebf;fillColor=#dae8fc;align=left;verticalAlign=middle;spacingLeft=4;spacingRight=4;overflow=hidden;points=[[0,0.5],[1,0.5]];portConstraint=eastwest;rotatable=0;" parent="Mh0ESkbl0JZ6DSoJVtcz-12" vertex="1">
          <mxGeometry x="10" y="150" width="140" height="20" as="geometry" />
        </mxCell>
        <mxCell id="Mh0ESkbl0JZ6DSoJVtcz-23" value="run_all" style="text;strokeColor=#6c8ebf;fillColor=#dae8fc;align=left;verticalAlign=middle;spacingLeft=4;spacingRight=4;overflow=hidden;points=[[0,0.5],[1,0.5]];portConstraint=eastwest;rotatable=0;" parent="Mh0ESkbl0JZ6DSoJVtcz-12" vertex="1">
          <mxGeometry x="10" y="170" width="140" height="20" as="geometry" />
        </mxCell>
        <mxCell id="jCnpc0ftT1m7SfEn65ib-1" value="total_test_cases: int" style="text;strokeColor=#d6b656;fillColor=#fff2cc;align=left;verticalAlign=middle;spacingLeft=4;spacingRight=4;overflow=hidden;points=[[0,0.5],[1,0.5]];portConstraint=eastwest;rotatable=0;" vertex="1" parent="Mh0ESkbl0JZ6DSoJVtcz-12">
          <mxGeometry x="10" y="80" width="140" height="20" as="geometry" />
        </mxCell>
        <mxCell id="jCnpc0ftT1m7SfEn65ib-2" value="failed_test_cases: int" style="text;strokeColor=#d6b656;fillColor=#fff2cc;align=left;verticalAlign=middle;spacingLeft=4;spacingRight=4;overflow=hidden;points=[[0,0.5],[1,0.5]];portConstraint=eastwest;rotatable=0;" vertex="1" parent="Mh0ESkbl0JZ6DSoJVtcz-12">
          <mxGeometry x="10" y="100" width="140" height="20" as="geometry" />
        </mxCell>
        <mxCell id="Mh0ESkbl0JZ6DSoJVtcz-13" value="TestResult" style="swimlane;" parent="WIyWlLk6GJQsqaUBKTNV-1" vertex="1">
          <mxGeometry x="310" y="150" width="190" height="120" as="geometry" />
        </mxCell>
        <mxCell id="Mh0ESkbl0JZ6DSoJVtcz-19" value="test_case: TestCase *" style="text;strokeColor=#d6b656;fillColor=#fff2cc;align=left;verticalAlign=middle;spacingLeft=4;spacingRight=4;overflow=hidden;points=[[0,0.5],[1,0.5]];portConstraint=eastwest;rotatable=0;" parent="Mh0ESkbl0JZ6DSoJVtcz-13" vertex="1">
          <mxGeometry x="10" y="40" width="170" height="20" as="geometry" />
        </mxCell>
        <mxCell id="Mh0ESkbl0JZ6DSoJVtcz-20" value="total_test_cases: int" style="text;strokeColor=#d6b656;fillColor=#fff2cc;align=left;verticalAlign=middle;spacingLeft=4;spacingRight=4;overflow=hidden;points=[[0,0.5],[1,0.5]];portConstraint=eastwest;rotatable=0;" parent="Mh0ESkbl0JZ6DSoJVtcz-13" vertex="1">
          <mxGeometry x="10" y="60" width="170" height="20" as="geometry" />
        </mxCell>
        <mxCell id="Mh0ESkbl0JZ6DSoJVtcz-21" value="failed_test_cases: int" style="text;strokeColor=#d6b656;fillColor=#fff2cc;align=left;verticalAlign=middle;spacingLeft=4;spacingRight=4;overflow=hidden;points=[[0,0.5],[1,0.5]];portConstraint=eastwest;rotatable=0;" parent="Mh0ESkbl0JZ6DSoJVtcz-13" vertex="1">
          <mxGeometry x="10" y="80" width="170" height="20" as="geometry" />
        </mxCell>
        <mxCell id="jCnpc0ftT1m7SfEn65ib-3" style="edgeStyle=orthogonalEdgeStyle;rounded=0;orthogonalLoop=1;jettySize=auto;html=1;entryX=1;entryY=0.5;entryDx=0;entryDy=0;" edge="1" parent="WIyWlLk6GJQsqaUBKTNV-1" source="Mh0ESkbl0JZ6DSoJVtcz-14" target="Mh0ESkbl0JZ6DSoJVtcz-13">
          <mxGeometry relative="1" as="geometry" />
        </mxCell>
        <mxCell id="jCnpc0ftT1m7SfEn65ib-4" value="runs and exports &lt;br&gt;results" style="edgeLabel;html=1;align=center;verticalAlign=middle;resizable=0;points=[];" vertex="1" connectable="0" parent="jCnpc0ftT1m7SfEn65ib-3">
          <mxGeometry x="-0.2742" y="-1" relative="1" as="geometry">
            <mxPoint x="-17" y="-4" as="offset" />
          </mxGeometry>
        </mxCell>
        <mxCell id="Mh0ESkbl0JZ6DSoJVtcz-14" value="TestCase" style="swimlane;" parent="WIyWlLk6GJQsqaUBKTNV-1" vertex="1">
          <mxGeometry x="620" y="150" width="186" height="130" as="geometry" />
        </mxCell>
        <mxCell id="Mh0ESkbl0JZ6DSoJVtcz-17" value="name: String" style="text;strokeColor=#d6b656;fillColor=#fff2cc;align=left;verticalAlign=middle;spacingLeft=4;spacingRight=4;overflow=hidden;points=[[0,0.5],[1,0.5]];portConstraint=eastwest;rotatable=0;" parent="Mh0ESkbl0JZ6DSoJVtcz-14" vertex="1">
          <mxGeometry x="12" y="40" width="158" height="20" as="geometry" />
        </mxCell>
        <mxCell id="Mh0ESkbl0JZ6DSoJVtcz-18" value="test_group: TestGroup *" style="text;strokeColor=#d6b656;fillColor=#fff2cc;align=left;verticalAlign=middle;spacingLeft=4;spacingRight=4;overflow=hidden;points=[[0,0.5],[1,0.5]];portConstraint=eastwest;rotatable=0;" parent="Mh0ESkbl0JZ6DSoJVtcz-14" vertex="1">
          <mxGeometry x="12" y="60" width="158" height="20" as="geometry" />
        </mxCell>
        <mxCell id="jCnpc0ftT1m7SfEn65ib-0" value="run" style="text;strokeColor=#6c8ebf;fillColor=#dae8fc;align=left;verticalAlign=middle;spacingLeft=4;spacingRight=4;overflow=hidden;points=[[0,0.5],[1,0.5]];portConstraint=eastwest;rotatable=0;" vertex="1" parent="Mh0ESkbl0JZ6DSoJVtcz-14">
          <mxGeometry x="12" y="100" width="158" height="20" as="geometry" />
        </mxCell>
      </root>
    </mxGraphModel>
  </diagram>
</mxfile>
